<svg xmlns="http://www.w3.org/2000/svg" width="22.551" height="22.551" viewBox="0 0 22.551 22.551">
  <g id="Add-1" transform="translate(-2.244 -2.245)">
    <g id="Group_926" data-name="Group 926" transform="translate(3 3)">
      <path id="Path_112" data-name="Path 112" d="M3.413,9.955A8.78,8.78,0,0,1,9.955,3.413a15.63,15.63,0,0,1,7.13,0,8.78,8.78,0,0,1,6.542,6.542,15.63,15.63,0,0,1,0,7.13,8.78,8.78,0,0,1-6.542,6.542,15.63,15.63,0,0,1-7.13,0,8.78,8.78,0,0,1-6.542-6.542,15.609,15.609,0,0,1,0-7.13Z" transform="translate(-3 -3)" fill="none" stroke="#fff" stroke-width="1.5"/>
      <path id="Path_113" data-name="Path 113" d="M17.482,13.491H9.5m3.991,3.991V9.5" transform="translate(-2.971 -2.972)" fill="none" stroke="#fff" stroke-linecap="round" stroke-width="1.5"/>
    </g>
  </g>
</svg>