<svg xmlns="http://www.w3.org/2000/svg" width="18.501" height="19.499" viewBox="0 0 18.501 19.499">
  <g id="Calendar" transform="translate(-2.75 -2.25)">
    <g id="Group_935" data-name="Group 935">
      <path id="Path_114" data-name="Path 114" d="M3.833,15.248l.731-.167-.73.168Zm0-5.895.731.168-.73-.168Zm16.334,0-.731.168.73-.168Zm0,5.9-.731-.168.73.168Zm-5.287,5.41.175.73Zm-5.76,0,.175-.73Zm0-16.716.175.73Zm5.76,0,.175-.73ZM8.82,3a.75.75,0,0,0-1.5,0ZM7.32,5.514a.75.75,0,0,0,1.5,0ZM16.68,3a.75.75,0,1,0-1.5,0Zm-1.5,2.514a.75.75,0,1,0,1.5,0ZM4.564,15.08a12.452,12.452,0,0,1,0-5.56L3.1,9.185a13.952,13.952,0,0,0,0,6.23l1.462-.335ZM19.436,9.52a12.454,12.454,0,0,1,0,5.56l1.462.335a13.94,13.94,0,0,0,0-6.23l-1.462.335Zm-4.73,10.409a11.58,11.58,0,0,1-5.411,0l-.35,1.458a13.08,13.08,0,0,0,6.11,0l-.35-1.458ZM9.294,4.672a11.584,11.584,0,0,1,5.41,0l.35-1.458a13.08,13.08,0,0,0-6.11,0l.35,1.458Zm0,15.258a6.429,6.429,0,0,1-4.73-4.85L3.1,15.416a7.928,7.928,0,0,0,5.843,5.972Zm5.76,1.458A7.928,7.928,0,0,0,20.9,15.416l-1.462-.335A6.432,6.432,0,0,1,14.7,19.93l.35,1.458ZM14.7,4.672a6.428,6.428,0,0,1,4.73,4.849L20.9,9.186a7.926,7.926,0,0,0-5.843-5.972L14.7,4.672ZM8.944,3.214A7.924,7.924,0,0,0,3.1,9.186l1.462.335a6.431,6.431,0,0,1,4.73-4.849l-.35-1.458ZM4.14,9.029H19.86v-1.5H4.14ZM7.32,3V5.514h1.5V3H7.32Zm7.86,0V5.514h1.5V3Z" fill="#c6c6c6"/>
    </g>
  </g>
</svg>