<svg xmlns="http://www.w3.org/2000/svg" id="equipment" width="24" height="24" viewBox="0 0 24 24">
  <g id="Group_987" data-name="Group 987">
    <path id="Path_127" data-name="Path 127" d="M0,0H24V24H0Z" fill="none"/>
    <path id="Path_128" data-name="Path 128" d="M11.141,4a6.155,6.155,0,0,0-3.128.565A3.453,3.453,0,0,0,6.565,6.013,6.15,6.15,0,0,0,6,9.14v5.718a6.155,6.155,0,0,0,.565,3.128,3.451,3.451,0,0,0,1.448,1.448A6.152,6.152,0,0,0,11.141,20h1.718a6.155,6.155,0,0,0,3.128-.565,3.453,3.453,0,0,0,1.448-1.448A6.152,6.152,0,0,0,18,14.858V9.14a6.155,6.155,0,0,0-.565-3.128,3.453,3.453,0,0,0-1.448-1.448A6.163,6.163,0,0,0,12.86,4H11.14Zm0-2h1.718a7.971,7.971,0,0,1,4.072.8A5.452,5.452,0,0,1,19.2,5.069,7.971,7.971,0,0,1,20,9.141v5.718a7.971,7.971,0,0,1-.8,4.072A5.452,5.452,0,0,1,16.931,21.2a7.971,7.971,0,0,1-4.072.8H11.14a7.971,7.971,0,0,1-4.072-.8A5.452,5.452,0,0,1,4.8,18.931,7.983,7.983,0,0,1,4,14.859V9.14a7.971,7.971,0,0,1,.8-4.072A5.452,5.452,0,0,1,7.07,2.8,7.964,7.964,0,0,1,11.141,2ZM11,6h2v5H11Z" fill="#c6c6c6"/>
  </g>
</svg>