<svg xmlns="http://www.w3.org/2000/svg" width="12.468" height="12.24" viewBox="0 0 12.468 12.24">
  <g id="Export-1" transform="translate(0.753 1.058)">
    <g id="Group_847" data-name="Group 847" transform="translate(0)">
      <path id="Path_100" data-name="Path 100" d="M8.328,3a8.082,8.082,0,0,0-1.806.2A4.4,4.4,0,0,0,3.209,6.447a7.577,7.577,0,0,0,0,3.534,4.4,4.4,0,0,0,3.314,3.243,8.084,8.084,0,0,0,3.611,0,4.4,4.4,0,0,0,3.314-3.243,7.591,7.591,0,0,0,.209-1.767" transform="translate(-3 -3)" fill="none" stroke="#c6c6c6" stroke-linecap="round" stroke-width="1.5"/>
      <path id="Path_101" data-name="Path 101" d="M16.184,3h2.368m0,0V5.7m0-2.7L15,7.056" transform="translate(-7.896 -3)" fill="none" stroke="#c6c6c6" stroke-linecap="round" stroke-linejoin="round" stroke-width="1.5"/>
    </g>
  </g>
</svg>
