<svg xmlns="http://www.w3.org/2000/svg" id="leads" width="24" height="24" viewBox="0 0 24 24">
  <g id="Group_988" data-name="Group 988">
    <path id="Path_129" data-name="Path 129" d="M0,0H24V24H0Z" fill="none"/>
    <path id="Path_130" data-name="Path 130" d="M12,23a7.5,7.5,0,0,0,7.5-7.5,7.53,7.53,0,0,0-.5-2.47Q16.5,15.5,15.2,15.5c3.995-7,1.8-10-4.2-14,.5,5-2.8,7.274-4.138,8.537A7.5,7.5,0,0,0,12,23Zm.71-17.765c3.241,2.75,3.257,4.887.753,9.274A2,2,0,0,0,15.2,17.5a4.45,4.45,0,0,0,2.119-.595,5.5,5.5,0,1,1-9.087-5.412c.126-.118.765-.685.793-.71.424-.38.773-.717,1.118-1.086a10.478,10.478,0,0,0,2.566-4.462Z" fill="#c6c6c6"/>
  </g>
</svg>