<svg xmlns="http://www.w3.org/2000/svg" width="15" height="14.996" viewBox="0 0 15 14.996">
  <g id="moon-outline" transform="translate(-2.04 -2.043)">
    <g id="Group_901" data-name="Group 901" transform="translate(2.04 2.043)">
      <g id="Layer_2" data-name="Layer 2">
        <path id="moon" d="M9.75,17.039H9.675a7.747,7.747,0,0,1-5.515-2.367,7.86,7.86,0,0,1-.2-10.52A7.612,7.612,0,0,1,6.969,2.093a.74.74,0,0,1,.977.917A6.312,6.312,0,0,0,9.4,9.63a6.365,6.365,0,0,0,6.635,1.458.751.751,0,0,1,.954.969,7.635,7.635,0,0,1-1.758,2.728A7.725,7.725,0,0,1,9.75,17.039ZM6.113,4.2a5.959,5.959,0,0,0-1.029.917,6.342,6.342,0,0,0,.15,8.506A6.229,6.229,0,0,0,9.69,15.536h.06a6.267,6.267,0,0,0,5.095-2.622A7.792,7.792,0,0,1,6.113,4.2Z" transform="translate(-2.04 -2.043)" fill="#9a9a9a"/>
      </g>
    </g>
  </g>
</svg>