<svg id="Wordmark_dark" xmlns="http://www.w3.org/2000/svg" width="113.769" height="24.998" viewBox="0 0 113.769 24.998">
  <path id="Path_9" data-name="Path 9" d="M18.46,63.825V60.31l9.1-10.058H18.754V46.21H33.772v3.518L24.638,59.783h9.137v4.042Z" transform="translate(-18.46 -39.217)" fill="#3c9"/>
  <path id="Path_10" data-name="Path 10" d="M101.36,56.453H89.225a4.042,4.042,0,0,0,4.262,3.415,5.722,5.722,0,0,0,4.231-1.79l2.831,2.506A9.214,9.214,0,0,1,84.31,54.822v-.066c0-4.977,3.546-9.077,8.624-9.077,5.824,0,8.492,4.521,8.492,9.467v.066C101.423,55.7,101.392,56,101.36,56.453Zm-8.427-6.8c-2.05,0-3.384,1.465-3.774,3.709h7.452C96.317,51.148,95.015,49.651,92.934,49.651Z" transform="translate(-65.538 -38.838)" fill="#3c9"/>
  <path id="Path_11" data-name="Path 11" d="M167.86,63.446V53.719c0-2.343-1.106-3.546-2.993-3.546s-3.09,1.2-3.09,3.546v9.727H156.83V46.008h4.946v2.472a6.166,6.166,0,0,1,5.109-2.8c3.743,0,5.921,2.472,5.921,6.474V63.446Z" transform="translate(-117.384 -38.838)" fill="#3c9"/>
  <path id="Path_12" data-name="Path 12" d="M240.251,21.68V31.9a7.952,7.952,0,0,0-6.594-3.449,8.533,8.533,0,0,0-8.307,8.926v.063a8.5,8.5,0,0,0,8.307,8.863,7.984,7.984,0,0,0,6.594-3.581v3.19h2.07V21.68Zm.1,15.728a6.72,6.72,0,0,1-6.528,6.885c-3.578,0-6.272-2.976-6.272-6.919v-.066c0-4.1,2.52-6.85,6.272-6.85a6.719,6.719,0,0,1,6.528,6.885Z" transform="translate(-166.37 -21.68)" fill="#3c9"/>
  <path id="Path_13" data-name="Path 13" d="M305.483,45.42c-4.55,0-8.113,3.906-8.113,8.892v.068c0,5.066,3.6,8.892,8.37,8.892a8.9,8.9,0,0,0,7.041-3.2l.168-.18L311.484,58.6l-.16.168a7.167,7.167,0,0,1-5.516,2.529c-3.35,0-5.887-2.477-6.249-6.064h13.715l.026-.205a3.7,3.7,0,0,0,.037-.619v-.063C313.334,49.089,310.1,45.42,305.483,45.42Zm-5.921,7.908c.379-3.472,2.811-5.967,5.853-5.967,3.792,0,5.425,3.156,5.693,5.967Z" transform="translate(-217.859 -38.652)" fill="#3c9"/>
  <path id="Path_14" data-name="Path 14" d="M374.073,46.55l-7.811,17.529h-1.71L356.74,46.55h2.426l6.243,14.713,6.306-14.713Z" transform="translate(-260.304 -39.46)" fill="#3c9"/>
</svg>
