<svg xmlns="http://www.w3.org/2000/svg" width="268" height="98" viewBox="0 0 268 98">
  <g id="Group_980" data-name="Group 980" transform="translate(-1338 -446)">
    <text id="resource_planning" data-name="resource planning" transform="translate(1338 539)" fill="#3c9" font-size="22" font-family="Inter-Bold, Inter" font-weight="700" letter-spacing="0.078em"><tspan x="0" y="0">RESOURCE PLANNING</tspan></text>
    <g id="Wordmark_dark" transform="translate(1340.415 446)">
      <path id="Path_9" data-name="Path 9" d="M18.46,87.124V78.96L39.6,55.6H19.142V46.21H54.024v8.171L32.809,77.735H54.031v9.389Z" transform="translate(-18.46 -29.968)" fill="#fff"/>
      <path id="Path_10" data-name="Path 10" d="M123.913,70.7H95.725c1.132,5.218,4.761,7.933,9.9,7.933,3.854,0,6.648-1.212,9.826-4.158l6.575,5.82c-3.781,4.688-9.217,7.555-16.554,7.555-12.164,0-21.162-8.542-21.162-20.937v-.152c0-11.561,8.237-21.083,20.03-21.083,13.528,0,19.725,10.5,19.725,21.99v.152C124.059,68.961,123.986,69.643,123.913,70.7ZM104.34,54.9c-4.761,0-7.86,3.4-8.767,8.615h17.309C112.2,58.38,109.174,54.9,104.34,54.9Z" transform="translate(-40.708 -29.788)" fill="#fff"/>
      <path id="Path_11" data-name="Path 11" d="M182.448,86.945V64.353c0-5.443-2.569-8.237-6.953-8.237s-7.178,2.794-7.178,8.237V86.945H156.83v-40.5h11.488v5.741c2.642-3.4,6.045-6.5,11.866-6.5,8.694,0,13.753,5.741,13.753,15.037V86.945Z" transform="translate(-65.209 -29.788)" fill="#fff"/>
      <path id="Path_12" data-name="Path 12" d="M259.96,21.68V45.411c-4-5.317-9.138-8.012-15.315-8.012-9.489,0-19.295,7.754-19.295,20.732v.146c0,12.885,9.806,20.586,19.295,20.586,6.072,0,11.21-2.794,15.315-8.317v7.409h4.807V21.68Zm.225,36.531A15.607,15.607,0,0,1,245.022,74.2c-8.31,0-14.567-6.913-14.567-16.07v-.152c0-9.522,5.853-15.911,14.567-15.911a15.607,15.607,0,0,1,15.163,15.991Z" transform="translate(-88.358 -21.68)" fill="#fff"/>
      <path id="Path_13" data-name="Path 13" d="M316.215,45.42c-10.568,0-18.845,9.071-18.845,20.652v.159c0,11.766,8.356,20.652,19.441,20.652,6.628,0,11.515-2.231,16.355-7.429l.391-.417-3.4-3-.371.391c-3.734,4.006-7.807,5.873-12.813,5.873-7.78,0-13.673-5.754-14.514-14.084h31.856l.06-.477a8.587,8.587,0,0,0,.086-1.437v-.146C334.45,53.942,326.948,45.42,316.215,45.42ZM302.462,63.788c.881-8.065,6.529-13.859,13.594-13.859,8.807,0,12.6,7.33,13.223,13.859Z" transform="translate(-112.691 -29.701)" fill="#fff"/>
      <path id="Path_14" data-name="Path 14" d="M397,46.55,378.856,87.265h-3.973L356.74,46.55h5.635l14.5,34.173L391.522,46.55Z" transform="translate(-132.749 -30.082)" fill="#fff"/>
    </g>
  </g>
</svg>
